<svg width="512" height="512" viewBox="0 0 512 512" fill="none" xmlns="http://www.w3.org/2000/svg">
<rect width="512" height="512" rx="20" fill="white"/>
<path fill-rule="evenodd" clip-rule="evenodd" d="M402.954 343.845L394.674 342.441C396.978 340.063 399.208 337.63 401.4 335.158C406.177 329.823 403.798 324.319 399.77 319.452C396.641 315.707 393.156 314.285 389.091 315.595L387.779 317.018C380.979 324.319 374.291 331.302 367.827 337.892L394.674 342.441L367.827 337.892C341.486 364.775 319.117 385.068 310.012 392.856L329.14 415.209C334.03 411.034 342.254 403.751 352.521 394.054C358.737 378.939 368.597 365.594 381.222 355.208C385.927 351.191 390.417 346.929 394.674 342.441L402.954 343.845ZM171.132 354.591C177.942 367.499 180.256 382.306 177.708 396.675C195.131 409.536 211.824 420.825 226.418 429.979L242.024 405.043C217.465 389.567 193.797 372.723 171.132 354.591V354.591ZM267.634 131.813C280.58 112.306 303.455 87.6695 331.501 73.6476C358.853 59.9627 390.721 56.387 424.93 77.2046C434.009 82.4579 441.835 89.6207 447.868 98.1966C453.902 106.772 457.997 116.556 459.87 126.871C464.011 147.464 461.369 171.426 454.156 196.344C442.522 236.537 419.853 275.982 400.837 301.18C405.122 302.977 408.885 305.822 411.779 309.455V309.455C415.469 313.656 418.045 318.715 419.272 324.169C419.272 324.525 419.403 324.899 419.46 325.255C441.623 297.53 468.807 251.682 482.483 204.45C490.445 176.986 494.192 147.876 488.797 120.993C486.119 106.696 480.404 93.1406 472.036 81.2399C463.669 69.3391 452.844 59.3704 440.293 52.0064C395.873 24.9736 353.045 29.9346 318.386 47.27C288.579 62.2467 264.562 86.2467 249.068 107.064C213.753 99.5759 170.664 95.7194 131.677 99.9691C90.0485 104.499 47.7644 118.877 29.2359 153.96C15.8219 179.364 18.2386 207.108 28.6925 233.373C39.1465 259.639 57.8062 285.661 79.8382 309.998C104.549 337.311 134.169 363.296 162.964 385.555C163.181 373.263 158.836 361.326 150.767 352.045L149.943 351.109C148.41 349.313 147.222 347.251 146.44 345.024C146.196 344.313 145.765 343.302 145.091 341.729L144.735 340.962C144.173 339.67 143.48 338.079 142.861 336.6C141.913 334.354 141.186 332.022 140.688 329.636C140.688 329.349 140.632 329.03 140.52 328.681C126.947 316.583 114.009 303.792 101.758 290.36C80.8498 267.258 64.6069 244.138 56.0639 222.628C47.5209 201.117 47.2024 183.108 55.2958 167.795C66.5365 146.528 95.1818 133.648 134.881 129.323C173.53 125.111 217.65 129.66 251.972 138.01L261.995 140.443L267.634 131.813Z" fill="#D6139B"/>
<path fill-rule="evenodd" clip-rule="evenodd" d="M402.954 343.845L394.674 342.441C396.978 340.063 399.208 337.63 401.4 335.158C406.177 329.823 403.798 324.319 399.77 319.452C396.641 315.707 393.156 314.285 389.091 315.595L387.779 317.018C380.979 324.319 374.291 331.302 367.827 337.892L394.674 342.441L367.827 337.892C341.486 364.775 319.117 385.068 310.012 392.856L329.14 415.209C334.03 411.034 342.254 403.751 352.521 394.054C358.737 378.939 368.597 365.594 381.222 355.208C385.927 351.191 390.417 346.929 394.674 342.441L402.954 343.845ZM171.132 354.591C177.942 367.499 180.256 382.306 177.708 396.675C195.131 409.536 211.824 420.825 226.418 429.979L242.024 405.043C217.465 389.567 193.797 372.723 171.132 354.591V354.591ZM267.634 131.813C280.58 112.306 303.455 87.6695 331.501 73.6476C358.853 59.9627 390.721 56.387 424.93 77.2046C434.009 82.4579 441.835 89.6207 447.868 98.1966C453.902 106.772 457.997 116.556 459.87 126.871C464.011 147.464 461.369 171.426 454.156 196.344C442.522 236.537 419.853 275.982 400.837 301.18C405.122 302.977 408.885 305.822 411.779 309.455V309.455C415.469 313.656 418.045 318.715 419.272 324.169C419.272 324.525 419.403 324.899 419.46 325.255C441.623 297.53 468.807 251.682 482.483 204.45C490.445 176.986 494.192 147.876 488.797 120.993C486.119 106.696 480.404 93.1406 472.036 81.2399C463.669 69.3391 452.844 59.3704 440.293 52.0064C395.873 24.9736 353.045 29.9346 318.386 47.27C288.579 62.2467 264.562 86.2467 249.068 107.064C213.753 99.5759 170.664 95.7194 131.677 99.9691C90.0485 104.499 47.7644 118.877 29.2359 153.96C15.8219 179.364 18.2386 207.108 28.6925 233.373C39.1465 259.639 57.8062 285.661 79.8382 309.998C104.549 337.311 134.169 363.296 162.964 385.555C163.181 373.263 158.836 361.326 150.767 352.045L149.943 351.109C148.41 349.313 147.222 347.251 146.44 345.024C146.196 344.313 145.765 343.302 145.091 341.729L144.735 340.962C144.173 339.67 143.48 338.079 142.861 336.6C141.913 334.354 141.186 332.022 140.688 329.636C140.688 329.349 140.632 329.03 140.52 328.681C126.947 316.583 114.009 303.792 101.758 290.36C80.8498 267.258 64.6069 244.138 56.0639 222.628C47.5209 201.117 47.2024 183.108 55.2958 167.795C66.5365 146.528 95.1818 133.648 134.881 129.323C173.53 125.111 217.65 129.66 251.972 138.01L261.995 140.443L267.634 131.813Z" fill="#F34056"/>
<path d="M220.144 436.118C224.284 444.654 228.406 453.191 232.865 462.327C211.657 455.643 191.911 446.732 181.476 425.896C177.385 417.74 175.875 408.533 177.148 399.5C181.232 377.615 176.605 358.876 162.741 341.99C162.076 341.351 161.525 340.604 161.111 339.78C159.238 334.351 154.367 326.058 156.24 323.999C161.076 319.245 167.442 316.36 174.207 315.855C184.885 315.219 194.178 319.73 201.11 328.96C203.657 332.367 209.446 336.074 212.875 335.362C216.997 334.501 221.249 329.652 223.404 325.459C225.558 321.266 225.558 315.986 225.596 311.156C225.746 291.237 225.371 271.356 225.596 251.437C225.72 244.097 226.427 236.78 227.713 229.552C229.399 219.593 237.211 213.677 247.272 213.902C257.332 214.126 261.829 218.507 263.046 230.245C264.92 249.116 266.1 268.08 267.899 286.95C268.461 292.772 270.091 298.482 271.233 304.248C272.208 304.361 273.107 304.51 274.156 304.642C276.643 300.313 278.888 295.851 280.882 291.275C287.945 272.386 294.577 253.309 301.621 234.401C305.93 222.869 312.187 220.229 323.953 224.292C335.193 228.167 337.91 233.652 334.35 245.428C327.443 268.217 320.512 290.975 313.555 313.702L315.559 315.032C317.864 312.56 320.281 310.22 322.435 307.543C334.369 293.184 346.097 278.638 358.237 264.485C365.506 256.005 371.351 255.125 378.62 261.041C387.126 268.136 389.861 273.584 383.173 282.907C373.955 295.974 364.794 309.016 355.689 322.033C352.411 326.732 349.394 331.599 346.322 336.373C346.79 337.047 347.277 337.721 347.764 338.376C350.781 337.01 353.928 335.849 356.813 334.183C366.63 328.567 376.447 322.95 386.133 317.016C391.566 313.74 395.969 314.751 399.865 319.45C403.762 324.149 406.273 329.821 401.495 335.156C395.25 342.305 388.507 349.005 381.318 355.206C366.615 367.282 355.707 383.336 349.9 401.447C344.823 416.985 336.636 431.662 328.374 445.89C323.407 454.018 317.091 461.242 309.696 467.25C290.268 483.594 266.606 482.863 248.302 465.21C238.935 456.149 231.048 445.497 222.523 435.537C221.718 435.724 220.931 435.93 220.144 436.118Z" fill="#FFAB7C"/>
</svg>
